Coordinates
version=1
nRows=21
nColumns=12
inDegrees=yes

Units are S.I. units (second, meters, Newtons, ...)
Angles are in degrees

endheader
time	SC_y	SC_z	SC_x	AC_y	AC_z	AC_x	GH_y	GH_z	GH_yy	EL_x	PS_y
       0.0              -43.18          18.58           6.19          42.75         -16.83          1.354          -48.9          48.35         -35.57          23.92          90.71
   0.02903              -43.18          18.58           6.19          42.75         -16.83          1.353         -48.87          48.35         -35.56          23.93          90.71
   0.05805              -43.18          18.58           6.19          42.76         -16.82          1.351         -48.84          48.36         -35.55          23.94          90.71
   0.08708              -43.18          18.58           6.19          42.76         -16.82           1.35         -48.81          48.36         -35.54          23.95          90.71
    0.1161              -43.17          18.58           6.19          42.76         -16.82          1.349         -48.78          48.37         -35.53          23.95          90.71
    0.1451              -43.17          18.58           6.19          42.77         -16.81          1.348         -48.75          48.37         -35.52          23.96          90.71
    0.1742              -43.17          18.58          6.189          42.77         -16.81          1.346         -48.71          48.38          -35.5          23.97          90.71
    0.2032              -43.16          18.58          6.189          42.78          -16.8          1.345         -48.67          48.39         -35.49          23.98           90.7
    0.2322              -43.16          18.58          6.189          42.78          -16.8          1.343         -48.63          48.39         -35.48           24.0           90.7
    0.2612              -43.15          18.58          6.189          42.79         -16.79          1.341         -48.58           48.4         -35.46          24.01           90.7
    0.2903              -43.15          18.58          6.189          42.79         -16.79          1.339         -48.53          48.41         -35.45          24.02           90.7
    0.3193              -43.14          18.58          6.188           42.8         -16.78          1.337         -48.48          48.42         -35.43          24.04           90.7
    0.3483              -43.14          18.58          6.188           42.8         -16.77          1.335         -48.43          48.43         -35.41          24.05           90.7
    0.3773              -43.13          18.58          6.188          42.81         -16.77          1.332         -48.37          48.44         -35.39          24.07           90.7
    0.4064              -43.12          18.58          6.188          42.82         -16.76           1.33          -48.3          48.45         -35.37          24.09           90.7
    0.4354              -43.12          18.57          6.187          42.83         -16.75          1.327         -48.23          48.46         -35.34           24.1           90.7
    0.4644              -43.11          18.57          6.187          42.84         -16.74          1.324         -48.15          48.48         -35.32          24.13           90.7
    0.4934               -43.1          18.57          6.187          42.85         -16.73           1.32         -48.07          48.49         -35.29          24.15           90.7
    0.5225              -43.09          18.57          6.186          42.86         -16.72          1.317         -47.97          48.51         -35.26          24.17          90.69
    0.5515              -43.08          18.57          6.186          42.87         -16.71          1.313         -47.87          48.52         -35.22           24.2          90.69
    0.5805              -43.07          18.57          6.186          42.88          -16.7          1.308         -47.76          48.54         -35.18          24.23          90.69
